<svg xmlns="http://www.w3.org/2000/svg" viewBox="0 0 200 200"><defs><style>.cls-1{fill:#fff;}</style></defs><title>steezus_logo</title><g id="Layer_2" data-name="Layer 2"><g id="Layer_1-2" data-name="Layer 1"><path class="cls-1" d="M0,0V200H200V0ZM95.86,187.84C61.42,187.84,42.46,176.9,35,171l-2.14-35.78h9.61c8,25.9,25.9,40.59,49.93,40.59,19.76,0,29.64-11,29.64-25.1,0-11.21-7.75-21.89-31.51-31.51C64.36,108.54,35.25,93.86,35.25,60.75c0-31.5,26.17-48.59,65.15-48.59,29.64,0,46.19,11.48,53.4,15.75l1.07,36.31h-9.35c-7.47-24.29-17.62-40-40.85-40-19.75,0-26.7,12-26.7,22.43,0,8.81,2.94,15.22,27,25.1,24.56,10.41,62.21,25.9,62.21,63C167.15,166.48,139.12,187.84,95.86,187.84Z"/></g></g></svg>